<?xml version="1.0" encoding="iso-8859-1"?>
<!-- Uploaded to: SVG Repo, www.svgrepo.com, Generator: SVG Repo Mixer Tools -->
<svg version="1.1" id="Layer_1" xmlns="http://www.w3.org/2000/svg" xmlns:xlink="http://www.w3.org/1999/xlink" 
	 viewBox="0 0 512 512" xml:space="preserve">
<polygon style="fill:#B9B9B9;" points="376.967,0 196.923,227.868 376.967,455.736 410.725,455.736 410.725,0 "/>
<polygon style="fill:#DCDCDC;" points="376.967,33.758 376.967,0 45.011,0 45.011,455.736 376.967,455.736 376.967,202.549 
	281.319,168.791 376.967,135.033 376.967,101.275 281.319,67.516 "/>
<g>
	<polygon style="fill:#737373;" points="376.967,33.758 376.967,101.275 343.209,101.275 320.703,67.516 343.209,33.758 	"/>
	<polygon style="fill:#737373;" points="376.967,135.033 376.967,202.549 343.209,202.549 320.703,168.791 343.209,135.033 	"/>
</g>
<g>
	<rect x="78.769" y="33.758" style="fill:#969696;" width="264.44" height="67.516"/>
	<rect x="78.769" y="135.033" style="fill:#969696;" width="264.44" height="67.516"/>
</g>
<g>
	<path style="fill:#B9B9B9;" d="M208.605,396.659h-96.077c-4.662,0-8.44-3.779-8.44-8.44s3.778-8.44,8.44-8.44h96.077
		c4.662,0,8.44,3.779,8.44,8.44S213.265,396.659,208.605,396.659z"/>
	<path style="fill:#B9B9B9;" d="M215.27,362.901H112.527c-4.662,0-8.44-3.779-8.44-8.44s3.778-8.44,8.44-8.44H215.27
		c4.662,0,8.44,3.779,8.44,8.44S219.93,362.901,215.27,362.901z"/>
</g>
<g>
	<circle style="fill:#272727;" cx="343.209" cy="67.516" r="8.44"/>
	<circle style="fill:#272727;" cx="343.209" cy="168.791" r="8.44"/>
	<circle style="fill:#272727;" cx="309.451" cy="67.516" r="8.44"/>
	<circle style="fill:#272727;" cx="309.451" cy="168.791" r="8.44"/>
</g>
<path style="fill:#027372;" d="M354.462,286.945v202.549l56.265,7.448c33.633-19.456,56.263-55.818,56.263-97.47
	C466.989,337.324,416.611,286.945,354.462,286.945z"/>
<path style="fill:#02ACAB;" d="M354.462,286.945c43.503,0,78.769,50.379,78.769,112.527c0,30.657-8.581,58.449-22.499,78.744
	l-112.535,18.726c-33.632-19.457-56.263-55.82-56.263-97.47C241.934,337.324,292.313,286.945,354.462,286.945z"/>
<path style="fill:#FEDC3D;" d="M352.523,511.975c0.646,0.011,1.291,0.025,1.939,0.025c20.497,0,39.713-5.482,56.265-15.057
	l-0.001-73.839l-67.516-11.253L352.523,511.975z"/>
<path style="fill:#FFF1B1;" d="M298.198,423.103l-0.002,73.839C314.747,506.518,333.965,512,354.462,512V411.851L298.198,423.103z"
	/>
<polygon style="fill:#FFDBCC;" points="382.593,372.466 410.725,423.103 376.967,423.103 343.209,361.213 "/>
<polygon style="fill:#FFFFFF;" points="365.714,361.213 376.967,423.103 298.198,423.103 326.33,372.466 "/>
<polygon style="fill:#272727;" points="326.33,372.466 382.593,372.466 354.462,321.829 "/>
</svg>