<?xml version="1.0" encoding="iso-8859-1"?>
<!-- Uploaded to: SVG Repo, www.svgrepo.com, Generator: SVG Repo Mixer Tools -->
<svg height="800px" width="800px" version="1.1" id="Layer_1" xmlns="http://www.w3.org/2000/svg" xmlns:xlink="http://www.w3.org/1999/xlink" 
	 viewBox="0 0 512 512" xml:space="preserve">
<path style="fill:#EDF0F2;" d="M461.913,456.348H50.087C22.468,456.348,0,433.88,0,406.261V105.739
	C0,78.12,22.468,55.652,50.087,55.652h411.826c27.619,0,50.087,22.468,50.087,50.087v300.522
	C512,433.88,489.532,456.348,461.913,456.348z"/>
<path style="fill:#DAE1E6;" d="M461.913,55.652H256v400.696h205.913c27.619,0,50.087-22.468,50.087-50.087V105.739
	C512,78.12,489.532,55.652,461.913,55.652z"/>
<path style="fill:#736056;" d="M378.435,322.783h-244.87c-36.826,0-66.783-29.956-66.783-66.783s29.956-66.783,66.783-66.783h244.87
	c36.826,0,66.783,29.956,66.783,66.783S415.261,322.783,378.435,322.783z"/>
<path style="fill:#665247;" d="M378.435,189.217H256v133.565h122.435c36.826,0,66.783-29.956,66.783-66.783
	S415.261,189.217,378.435,189.217z"/>
<path style="fill:#FFC033;" d="M133.565,222.609c-18.413,0-33.391,14.978-33.391,33.391s14.978,33.391,33.391,33.391h244.87
	c18.413,0,33.391-14.978,33.391-33.391s-14.978-33.391-33.391-33.391H133.565z"/>
<path style="fill:#736056;" d="M133.565,322.783c-36.826,0-66.783-29.956-66.783-66.783s29.956-66.783,66.783-66.783
	s66.783,29.956,66.783,66.783S170.391,322.783,133.565,322.783z"/>
<path style="fill:#F9A926;" d="M378.435,222.609H256v66.783h122.435c18.413,0,33.391-14.978,33.391-33.391
	S396.848,222.609,378.435,222.609z"/>
<path style="fill:#57C3D9;" d="M428.522,155.826H83.478c-9.223,0-16.696-7.473-16.696-16.696s7.473-16.696,16.696-16.696h345.043
	c9.223,0,16.696,7.473,16.696,16.696S437.744,155.826,428.522,155.826z"/>
<path style="fill:#EDF0F2;" d="M133.565,222.609c-18.413,0-33.391,14.978-33.391,33.391s14.978,33.391,33.391,33.391
	s33.391-14.978,33.391-33.391S151.978,222.609,133.565,222.609z"/>
<path style="fill:#665247;" d="M378.435,322.783c-36.826,0-66.783-29.956-66.783-66.783s29.956-66.783,66.783-66.783
	s66.783,29.956,66.783,66.783S415.261,322.783,378.435,322.783z"/>
<path style="fill:#DAE1E6;" d="M378.435,222.609c-18.413,0-33.391,14.978-33.391,33.391s14.978,33.391,33.391,33.391
	c18.413,0,33.391-14.978,33.391-33.391S396.848,222.609,378.435,222.609z"/>
<path style="fill:#57C3D9;" d="M418.019,456.348l-41.085-90.386c-2.706-5.961-8.652-9.788-15.195-9.788H150.261
	c-6.544,0-12.489,3.827-15.195,9.788l-41.085,90.386H418.019z"/>
<g>
	<path style="fill:#3DB1CC;" d="M428.522,122.435H256v33.391h172.522c9.223,0,16.696-7.473,16.696-16.696
		S437.744,122.435,428.522,122.435z"/>
	<path style="fill:#3DB1CC;" d="M361.739,356.174H256v100.174h162.019l-41.085-90.386
		C374.229,360.001,368.283,356.174,361.739,356.174z"/>
</g>
</svg>